<?xml version="1.0" encoding="utf-8"?>
<!-- Generator: Adobe Illustrator 27.3.1, SVG Export Plug-In . SVG Version: 6.00 Build 0)  -->
<svg version="1.1" id="Layer_1" xmlns="http://www.w3.org/2000/svg" xmlns:xlink="http://www.w3.org/1999/xlink" x="0px" y="0px"
	 viewBox="0 0 1922.5 492.6" style="enable-background:new 0 0 1922.5 492.6;" xml:space="preserve">
<style type="text/css">
	.st0{clip-path:url(#SVGID_00000155863309675010955420000008427961231724765103_);}
	.st1{fill:#9700FF;}
</style>
<g>
	<defs>
		<rect id="SVGID_1_" x="-0.3" y="-0.6" width="1923" height="500.1"/>
	</defs>
	<clipPath id="SVGID_00000056404656047215858590000017527673607137607331_">
		<use xlink:href="#SVGID_1_"  style="overflow:visible;"/>
	</clipPath>
	<g style="clip-path:url(#SVGID_00000056404656047215858590000017527673607137607331_);">
		<path class="st1" d="M2033.8,476.3c-47.1,10.3-51.3-28.5-99.4-28.5c-48.2,0-48.2,28.8-96.3,28.8c-48.2,0-48.2-28.8-96.3-28.8
			c-48.2,0-48.2,28.8-96.3,28.8c-48.2,0-48.2-28.8-96.3-28.8c-48.2,0-48.2,28.8-96.3,28.8c-48.2,0-48.2-28.8-96.3-28.8
			c-48.2,0-48.2,28.8-96.3,28.8c-48.2,0-48.2-28.8-96.3-28.8c-48.2,0-48.2,28.8-96.3,28.8c-48.2,0-48.2-28.8-96.3-28.8
			c-48.2,0-48.2,28.8-96.3,28.8c-48.2,0-48.2-28.8-96.3-28.8c-48.2,0-48.2,28.8-96.3,28.8c-48.2,0-48.2-28.8-96.3-28.8
			c-48.2,0-48.2,28.8-96.3,28.8c-48.2,0-48.2-28.8-96.3-28.8c-48.2,0-48.2,28.8-96.3,28.8c-48.2,0-48.2-28.8-96.3-28.8
			c-48.2,0-48.2,28.8-96.3,28.8c-48.2,0-48.2-28.8-96.3-28.8c-48.2,0-48.2,28.8-96.4,28.8c-48.2,0-46.2-18.2-93.3-28.5
			c-10.3-2.3-17.5,3.5-17.5-7c0-10.5,28.8-10.5,28.8-21.1c0-10.5-28.8-10.5-28.8-21.1c0-10.5,28.8-10.5,28.8-21.1
			c0-10.5-28.8-10.5-28.8-21.1c0-10.5,28.8-10.5,28.8-21.1c0-10.5-28.8-10.5-28.8-21.1c0-10.5,28.8-10.5,28.8-21.1
			c0-10.5-28.8-10.5-28.8-21.1c0-10.5,28.8-10.5,28.8-21.1c0-10.5-28.8-10.5-28.8-21.1c0-10.5,28.8-10.5,28.8-21.1
			c0-10.5-28.8-10.5-28.8-21.1c0-10.5,28.8-10.5,28.8-21.1c0-10.5-28.8-10.5-28.8-21.1c0-10.5,28.8-10.5,28.8-21.1
			c0-10.5-28.8-10.5-28.8-21.1c0-10.5,28.8-10.5,28.8-21.1c0-10.5-28.8-10.5-28.8-21.1c0-10.5,28.8-10.5,28.8-21.1
			c0-10.5-28.8-10.5-28.8-21.1c0-10.6,28.8-10.6,28.8-21.1s-27.8-32.9-17.5-35.2c47.1-10.3,51.3,28.5,99.4,28.5
			c48.2,0,48.2-28.8,96.3-28.8c48.2,0,48.2,28.8,96.3,28.8c48.2,0,48.2-28.8,96.3-28.8c48.2,0,48.2,28.8,96.3,28.8
			c48.2,0,48.2-28.8,96.3-28.8c48.2,0,48.2,28.8,96.3,28.8c48.2,0,48.2-28.8,96.3-28.8c48.2,0,48.2,28.8,96.3,28.8
			c48.2,0,48.2-28.8,96.3-28.8c48.2,0,48.2,28.8,96.3,28.8c48.2,0,48.2-28.8,96.3-28.8c48.2,0,48.2,28.8,96.3,28.8
			c48.2,0,48.2-28.8,96.3-28.8c48.2,0,48.2,28.8,96.3,28.8c48.2,0,48.2-28.8,96.3-28.8c48.2,0,48.2,28.8,96.3,28.8
			c48.2,0,48.2-28.8,96.3-28.8c48.2,0,48.2,28.8,96.3,28.8c48.2,0,48.2-28.8,96.3-28.8c48.2,0,48.2,28.8,96.3,28.8
			c48.2,0,48.2-28.8,96.4-28.8c48.2,0,46.2,18.2,93.3,28.5c10.3,2.3,17.5-3.5,17.5,7c0,10.5-28.8,10.5-28.8,21.1
			c0,10.5,28.8,10.5,28.8,21.1c0,10.5-28.8,10.5-28.8,21.1c0,10.5,28.8,10.5,28.8,21.1c0,10.5-28.8,10.5-28.8,21.1
			c0,10.5,28.8,10.5,28.8,21.1c0,10.5-28.8,10.5-28.8,21.1c0,10.5,28.8,10.5,28.8,21.1c0,10.5-28.8,10.5-28.8,21.1
			c0,10.5,28.8,10.5,28.8,21.1c0,10.5-28.8,10.5-28.8,21.1c0,10.5,28.8,10.5,28.8,21.1c0,10.5-28.8,10.5-28.8,21.1
			c0,10.5,28.8,10.5,28.8,21.1c0,10.5-28.8,10.5-28.8,21.1c0,10.5,28.8,10.5,28.8,21.1c0,10.5-28.8,10.5-28.8,21.1
			c0,10.5,28.8,10.5,28.8,21.1c0,10.5-28.8,10.5-28.8,21.1c0,10.5,28.8,10.5,28.8,21.1c0,10.6-30.9,14.3-28.4,24.6
			C2021.3,462.9,2044.1,474,2033.8,476.3z"/>
	</g>
</g>
</svg>
